<svg width="180" height="40" viewBox="0 0 180 40" fill="none" xmlns="http://www.w3.org/2000/svg">
<path d="M40.0156 20L20.0074 0V20L40.0156 40V20Z" fill="white"/>
<path d="M40.0156 20L20.0074 0V20L40.0156 40V20Z" fill="url(#paint0_linear_312_61396)" fill-opacity="0.5"/>
<g style="mix-blend-mode:overlay" opacity="0.5">
<path d="M20.0101 20L40.0098 40L30.0099 20H20.0101Z" fill="black"/>
</g>
<path d="M40.0098 20L20.0101 0L30.0099 20H40.0098Z" fill="white"/>
<path d="M20.0098 20H0.00150015V40L20.0098 20Z" fill="url(#paint1_radial_312_61396)"/>
<g style="mix-blend-mode:overlay" opacity="0.5">
<path d="M20.0098 19.9961H0.00150101V29.9961L20.0098 19.9961Z" fill="white"/>
</g>
<path d="M63.5676 15.392H59.3756L58.3836 18H56.0796L60.4636 6.8H61.4556C62.149 6.8 62.6183 7.12 62.8636 7.76L66.8476 18H64.5436L63.5676 15.392ZM59.9676 13.536H62.9756L61.4876 9.504H61.4716L59.9676 13.536ZM68.6983 6.8H74.6503C75.6209 6.8 76.3996 7.06133 76.9863 7.584C77.5836 8.10667 77.8823 8.79467 77.8823 9.648V10.768C77.8823 11.3227 77.7223 11.808 77.4023 12.224C77.0929 12.6293 76.6396 12.9387 76.0423 13.152V13.184C76.3836 13.408 76.6396 13.664 76.8103 13.952C76.9916 14.24 77.1676 14.64 77.3383 15.152L78.2343 18H75.9463L75.0983 15.344C74.9596 14.8853 74.7676 14.544 74.5223 14.32C74.2769 14.096 73.9729 13.984 73.6103 13.984H70.9063V18H68.6983V6.8ZM74.2343 12.08C74.6823 12.08 75.0343 11.9627 75.2903 11.728C75.5463 11.4827 75.6743 11.168 75.6743 10.784V9.744C75.6743 9.43467 75.5783 9.18933 75.3863 9.008C75.1943 8.816 74.9383 8.72 74.6183 8.72H70.9063V12.08H74.2343ZM80.502 6.8H82.71V18H80.502V6.8ZM89.6096 18.128C88.767 18.128 88.0203 17.952 87.3696 17.6C86.7296 17.2373 86.2283 16.736 85.8656 16.096C85.5136 15.4453 85.3376 14.6933 85.3376 13.84V10.96C85.3376 10.1067 85.5136 9.36 85.8656 8.72C86.2283 8.06933 86.7296 7.568 87.3696 7.216C88.0203 6.85333 88.767 6.672 89.6096 6.672H91.3056C92.1483 6.672 92.8896 6.85333 93.5296 7.216C94.1803 7.568 94.6816 8.06933 95.0336 8.72C95.3963 9.36 95.5776 10.1067 95.5776 10.96V13.84C95.5776 14.6933 95.3963 15.4453 95.0336 16.096C94.6816 16.736 94.1803 17.2373 93.5296 17.6C92.8896 17.952 92.1483 18.128 91.3056 18.128H89.6096ZM91.3056 16.176C91.9243 16.176 92.4203 15.952 92.7936 15.504C93.1776 15.056 93.3696 14.4693 93.3696 13.744V11.056C93.3696 10.3307 93.1776 9.744 92.7936 9.296C92.4203 8.848 91.9243 8.624 91.3056 8.624H89.6096C88.991 8.624 88.4896 8.848 88.1056 9.296C87.7323 9.744 87.5456 10.3307 87.5456 11.056V13.744C87.5456 14.4693 87.7323 15.056 88.1056 15.504C88.4896 15.952 88.991 16.176 89.6096 16.176H91.3056ZM101.979 18C101.361 18 100.918 17.6587 100.651 16.976L96.7953 6.8H99.0993L102.043 15.2H102.075L105.035 6.8H107.323L103.019 18H101.979ZM109.34 6.8H111.548V18H109.34V6.8ZM117.855 18.128C116.682 18.128 115.764 17.8027 115.103 17.152C114.442 16.4907 114.111 15.5733 114.111 14.4H116.287C116.287 14.9547 116.426 15.392 116.703 15.712C116.991 16.0213 117.386 16.176 117.887 16.176H119.663C120.132 16.176 120.511 16.08 120.799 15.888C121.098 15.6853 121.247 15.4187 121.247 15.088V14.544C121.247 14.0213 120.863 13.696 120.095 13.568L117.151 13.072C116.191 12.912 115.46 12.608 114.959 12.16C114.468 11.7013 114.223 11.12 114.223 10.416V9.52C114.223 8.95467 114.372 8.45867 114.671 8.032C114.98 7.59467 115.412 7.25867 115.967 7.024C116.532 6.78933 117.183 6.672 117.919 6.672H119.727C120.42 6.672 121.034 6.816 121.567 7.104C122.1 7.392 122.511 7.79733 122.799 8.32C123.098 8.832 123.247 9.42933 123.247 10.112H121.071C121.071 9.664 120.948 9.30667 120.703 9.04C120.458 8.76267 120.132 8.624 119.727 8.624H117.919C117.471 8.624 117.108 8.72 116.831 8.912C116.564 9.104 116.431 9.36 116.431 9.68V10.112C116.431 10.6453 116.799 10.976 117.535 11.104L120.463 11.616C121.434 11.7867 122.175 12.0907 122.687 12.528C123.199 12.9547 123.455 13.5093 123.455 14.192V15.248C123.455 15.8133 123.295 16.3147 122.975 16.752C122.666 17.1893 122.228 17.5307 121.663 17.776C121.098 18.0107 120.442 18.128 119.695 18.128H117.855Z" fill="url(#paint2_linear_312_61396)"/>
<path d="M58.1916 33.064C57.605 33.064 57.1463 32.9013 56.8156 32.576C56.485 32.2453 56.3196 31.7867 56.3196 31.2H57.4076C57.4076 31.4773 57.477 31.696 57.6156 31.856C57.7596 32.0107 57.957 32.088 58.2076 32.088H59.0956C59.3303 32.088 59.5196 32.04 59.6636 31.944C59.813 31.8427 59.8876 31.7093 59.8876 31.544V31.272C59.8876 31.0107 59.6956 30.848 59.3116 30.784L57.8396 30.536C57.3596 30.456 56.9943 30.304 56.7436 30.08C56.4983 29.8507 56.3756 29.56 56.3756 29.208V28.76C56.3756 28.4773 56.4503 28.2293 56.5996 28.016C56.7543 27.7973 56.9703 27.6293 57.2476 27.512C57.5303 27.3947 57.8556 27.336 58.2236 27.336H59.1276C59.4743 27.336 59.781 27.408 60.0476 27.552C60.3143 27.696 60.5196 27.8987 60.6636 28.16C60.813 28.416 60.8876 28.7147 60.8876 29.056H59.7996C59.7996 28.832 59.7383 28.6533 59.6156 28.52C59.493 28.3813 59.3303 28.312 59.1276 28.312H58.2236C57.9996 28.312 57.8183 28.36 57.6796 28.456C57.5463 28.552 57.4796 28.68 57.4796 28.84V29.056C57.4796 29.3227 57.6636 29.488 58.0316 29.552L59.4956 29.808C59.981 29.8933 60.3516 30.0453 60.6076 30.264C60.8636 30.4773 60.9916 30.7547 60.9916 31.096V31.624C60.9916 31.9067 60.9116 32.1573 60.7516 32.376C60.597 32.5947 60.3783 32.7653 60.0956 32.888C59.813 33.0053 59.485 33.064 59.1116 33.064H58.1916ZM62.9376 33C62.7083 33 62.5216 32.9307 62.3776 32.792C62.2336 32.6533 62.1616 32.472 62.1616 32.248V27.4H66.4336V28.36H63.2656V29.656H66.1936V30.616H63.2656V32.04H66.4336V33H62.9376ZM69.4422 33.064C69.0315 33.064 68.6689 32.976 68.3542 32.8C68.0449 32.624 67.8049 32.376 67.6342 32.056C67.4635 31.7307 67.3782 31.3573 67.3782 30.936V29.464C67.3782 29.0427 67.4635 28.672 67.6342 28.352C67.8102 28.0267 68.0555 27.776 68.3702 27.6C68.6902 27.424 69.0582 27.336 69.4742 27.336H70.3222C70.7222 27.336 71.0742 27.4213 71.3782 27.592C71.6822 27.7627 71.9169 28.0027 72.0822 28.312C72.2529 28.616 72.3382 28.9707 72.3382 29.376H71.2502C71.2502 29.056 71.1649 28.8 70.9942 28.608C70.8235 28.4107 70.5995 28.312 70.3222 28.312H69.4742C69.1755 28.312 68.9355 28.424 68.7542 28.648C68.5729 28.8667 68.4822 29.1547 68.4822 29.512V30.888C68.4822 31.2453 68.5702 31.536 68.7462 31.76C68.9222 31.9787 69.1542 32.088 69.4422 32.088H70.3062C70.5889 32.088 70.8182 31.9787 70.9942 31.76C71.1755 31.5413 71.2662 31.2533 71.2662 30.896H72.3542C72.3542 31.328 72.2689 31.7093 72.0982 32.04C71.9275 32.3653 71.6875 32.6187 71.3782 32.8C71.0689 32.976 70.7115 33.064 70.3062 33.064H69.4422ZM75.398 33.064C75.0033 33.064 74.6567 32.9813 74.358 32.816C74.0593 32.6453 73.8273 32.408 73.662 32.104C73.4967 31.8 73.414 31.448 73.414 31.048V27.4H74.518V31.016C74.518 31.336 74.598 31.5947 74.758 31.792C74.9233 31.9893 75.1367 32.088 75.398 32.088H76.246C76.5127 32.088 76.7287 31.9893 76.894 31.792C77.0593 31.5947 77.142 31.336 77.142 31.016V27.4H78.246V31.048C78.246 31.448 78.1633 31.8 77.998 32.104C77.8327 32.408 77.598 32.6453 77.294 32.816C76.99 32.9813 76.6407 33.064 76.246 33.064H75.398ZM79.6038 27.4H82.5798C83.0651 27.4 83.4545 27.5307 83.7478 27.792C84.0465 28.0533 84.1958 28.3973 84.1958 28.824V29.384C84.1958 29.6613 84.1158 29.904 83.9558 30.112C83.8011 30.3147 83.5745 30.4693 83.2758 30.576V30.592C83.4465 30.704 83.5745 30.832 83.6598 30.976C83.7505 31.12 83.8385 31.32 83.9238 31.576L84.3718 33H83.2278L82.8038 31.672C82.7345 31.4427 82.6385 31.272 82.5158 31.16C82.3931 31.048 82.2411 30.992 82.0598 30.992H80.7078V33H79.6038V27.4ZM82.3718 30.04C82.5958 30.04 82.7718 29.9813 82.8998 29.864C83.0278 29.7413 83.0918 29.584 83.0918 29.392V28.872C83.0918 28.7173 83.0438 28.5947 82.9478 28.504C82.8518 28.408 82.7238 28.36 82.5638 28.36H80.7078V30.04H82.3718ZM85.5057 27.4H86.6097V33H85.5057V27.4ZM89.4595 28.36H87.6835V27.4H92.3395V28.36H90.5635V33H89.4595V28.36ZM94.8951 30.824L92.8231 27.4H94.0231L95.4471 29.808L96.8711 27.4H98.0711L95.9991 30.824V33H94.8951V30.824ZM101.658 27.4H102.642L104.474 30.728L106.266 27.4H107.25V33H106.17V29.456L104.994 31.584C104.914 31.728 104.832 31.832 104.746 31.896C104.666 31.9547 104.573 31.984 104.466 31.984H104.162L102.738 29.456V33H101.658V27.4ZM109.42 33C109.191 33 109.004 32.9307 108.86 32.792C108.716 32.6533 108.644 32.472 108.644 32.248V27.4H112.916V28.36H109.748V29.656H112.676V30.616H109.748V32.04H112.916V33H109.42ZM114.844 33C114.615 33 114.428 32.9307 114.284 32.792C114.14 32.6533 114.068 32.472 114.068 32.248V27.4H118.34V28.36H115.172V29.656H118.1V30.616H115.172V32.04H118.34V33H114.844ZM120.867 28.36H119.091V27.4H123.747V28.36H121.971V33H120.867V28.36ZM126.298 33.064C125.711 33.064 125.253 32.9013 124.922 32.576C124.591 32.2453 124.426 31.7867 124.426 31.2H125.514C125.514 31.4773 125.583 31.696 125.722 31.856C125.866 32.0107 126.063 32.088 126.314 32.088H127.202C127.437 32.088 127.626 32.04 127.77 31.944C127.919 31.8427 127.994 31.7093 127.994 31.544V31.272C127.994 31.0107 127.802 30.848 127.418 30.784L125.946 30.536C125.466 30.456 125.101 30.304 124.85 30.08C124.605 29.8507 124.482 29.56 124.482 29.208V28.76C124.482 28.4773 124.557 28.2293 124.706 28.016C124.861 27.7973 125.077 27.6293 125.354 27.512C125.637 27.3947 125.962 27.336 126.33 27.336H127.234C127.581 27.336 127.887 27.408 128.154 27.552C128.421 27.696 128.626 27.8987 128.77 28.16C128.919 28.416 128.994 28.7147 128.994 29.056H127.906C127.906 28.832 127.845 28.6533 127.722 28.52C127.599 28.3813 127.437 28.312 127.234 28.312H126.33C126.106 28.312 125.925 28.36 125.786 28.456C125.653 28.552 125.586 28.68 125.586 28.84V29.056C125.586 29.3227 125.77 29.488 126.138 29.552L127.602 29.808C128.087 29.8933 128.458 30.0453 128.714 30.264C128.97 30.4773 129.098 30.7547 129.098 31.096V31.624C129.098 31.9067 129.018 32.1573 128.858 32.376C128.703 32.5947 128.485 32.7653 128.202 32.888C127.919 33.0053 127.591 33.064 127.218 33.064H126.298ZM133.749 33C133.519 33 133.333 32.9307 133.189 32.792C133.045 32.6533 132.973 32.472 132.973 32.248V27.4H135.757C136.263 27.4 136.669 27.52 136.973 27.76C137.282 28 137.437 28.3227 137.437 28.728V29.128C137.437 29.304 137.391 29.472 137.301 29.632C137.215 29.792 137.093 29.9227 136.933 30.024V30.032C137.189 30.1227 137.394 30.2693 137.549 30.472C137.709 30.6747 137.789 30.9013 137.789 31.152V31.568C137.789 32.0053 137.629 32.3547 137.309 32.616C136.994 32.872 136.567 33 136.029 33H133.749ZM135.757 29.72C135.927 29.72 136.066 29.6667 136.173 29.56C136.279 29.448 136.333 29.3013 136.333 29.12V28.848C136.333 28.6987 136.277 28.5813 136.165 28.496C136.053 28.4053 135.903 28.36 135.717 28.36H134.077V29.72H135.757ZM135.949 32.04C136.183 32.04 136.365 31.9947 136.493 31.904C136.621 31.808 136.685 31.6747 136.685 31.504V31.152C136.685 30.9973 136.629 30.872 136.517 30.776C136.405 30.68 136.255 30.632 136.069 30.632H134.077V32.04H135.949ZM140.848 33.064C140.453 33.064 140.107 32.9813 139.808 32.816C139.509 32.6453 139.277 32.408 139.112 32.104C138.947 31.8 138.864 31.448 138.864 31.048V27.4H139.968V31.016C139.968 31.336 140.048 31.5947 140.208 31.792C140.373 31.9893 140.587 32.088 140.848 32.088H141.696C141.963 32.088 142.179 31.9893 142.344 31.792C142.509 31.5947 142.592 31.336 142.592 31.016V27.4H143.696V31.048C143.696 31.448 143.613 31.8 143.448 32.104C143.283 32.408 143.048 32.6453 142.744 32.816C142.44 32.9813 142.091 33.064 141.696 33.064H140.848ZM146.734 33.064C146.147 33.064 145.688 32.9013 145.358 32.576C145.027 32.2453 144.862 31.7867 144.862 31.2H145.95C145.95 31.4773 146.019 31.696 146.158 31.856C146.302 32.0107 146.499 32.088 146.75 32.088H147.638C147.872 32.088 148.062 32.04 148.206 31.944C148.355 31.8427 148.43 31.7093 148.43 31.544V31.272C148.43 31.0107 148.238 30.848 147.854 30.784L146.382 30.536C145.902 30.456 145.536 30.304 145.286 30.08C145.04 29.8507 144.918 29.56 144.918 29.208V28.76C144.918 28.4773 144.992 28.2293 145.142 28.016C145.296 27.7973 145.512 27.6293 145.79 27.512C146.072 27.3947 146.398 27.336 146.766 27.336H147.67C148.016 27.336 148.323 27.408 148.59 27.552C148.856 27.696 149.062 27.8987 149.206 28.16C149.355 28.416 149.43 28.7147 149.43 29.056H148.342C148.342 28.832 148.28 28.6533 148.158 28.52C148.035 28.3813 147.872 28.312 147.67 28.312H146.766C146.542 28.312 146.36 28.36 146.222 28.456C146.088 28.552 146.022 28.68 146.022 28.84V29.056C146.022 29.3227 146.206 29.488 146.574 29.552L148.038 29.808C148.523 29.8933 148.894 30.0453 149.15 30.264C149.406 30.4773 149.534 30.7547 149.534 31.096V31.624C149.534 31.9067 149.454 32.1573 149.294 32.376C149.139 32.5947 148.92 32.7653 148.638 32.888C148.355 33.0053 148.027 33.064 147.654 33.064H146.734ZM150.784 27.4H151.888V33H150.784V27.4ZM153.362 27.4H154.346L157.034 31.208V27.4H158.114V33H157.13L154.442 29.192V33H153.362V27.4ZM160.28 33C160.05 33 159.864 32.9307 159.72 32.792C159.576 32.6533 159.504 32.472 159.504 32.248V27.4H163.776V28.36H160.608V29.656H163.536V30.616H160.608V32.04H163.776V33H160.28ZM166.607 33.064C166.021 33.064 165.562 32.9013 165.231 32.576C164.901 32.2453 164.735 31.7867 164.735 31.2H165.823C165.823 31.4773 165.893 31.696 166.031 31.856C166.175 32.0107 166.373 32.088 166.623 32.088H167.511C167.746 32.088 167.935 32.04 168.079 31.944C168.229 31.8427 168.303 31.7093 168.303 31.544V31.272C168.303 31.0107 168.111 30.848 167.727 30.784L166.255 30.536C165.775 30.456 165.41 30.304 165.159 30.08C164.914 29.8507 164.791 29.56 164.791 29.208V28.76C164.791 28.4773 164.866 28.2293 165.015 28.016C165.17 27.7973 165.386 27.6293 165.663 27.512C165.946 27.3947 166.271 27.336 166.639 27.336H167.543C167.89 27.336 168.197 27.408 168.463 27.552C168.73 27.696 168.935 27.8987 169.079 28.16C169.229 28.416 169.303 28.7147 169.303 29.056H168.215C168.215 28.832 168.154 28.6533 168.031 28.52C167.909 28.3813 167.746 28.312 167.543 28.312H166.639C166.415 28.312 166.234 28.36 166.095 28.456C165.962 28.552 165.895 28.68 165.895 28.84V29.056C165.895 29.3227 166.079 29.488 166.447 29.552L167.911 29.808C168.397 29.8933 168.767 30.0453 169.023 30.264C169.279 30.4773 169.407 30.7547 169.407 31.096V31.624C169.407 31.9067 169.327 32.1573 169.167 32.376C169.013 32.5947 168.794 32.7653 168.511 32.888C168.229 33.0053 167.901 33.064 167.527 33.064H166.607ZM172.257 33.064C171.671 33.064 171.212 32.9013 170.881 32.576C170.551 32.2453 170.385 31.7867 170.385 31.2H171.473C171.473 31.4773 171.543 31.696 171.681 31.856C171.825 32.0107 172.023 32.088 172.273 32.088H173.161C173.396 32.088 173.585 32.04 173.729 31.944C173.879 31.8427 173.953 31.7093 173.953 31.544V31.272C173.953 31.0107 173.761 30.848 173.377 30.784L171.905 30.536C171.425 30.456 171.06 30.304 170.809 30.08C170.564 29.8507 170.441 29.56 170.441 29.208V28.76C170.441 28.4773 170.516 28.2293 170.665 28.016C170.82 27.7973 171.036 27.6293 171.313 27.512C171.596 27.3947 171.921 27.336 172.289 27.336H173.193C173.54 27.336 173.847 27.408 174.113 27.552C174.38 27.696 174.585 27.8987 174.729 28.16C174.879 28.416 174.953 28.7147 174.953 29.056H173.865C173.865 28.832 173.804 28.6533 173.681 28.52C173.559 28.3813 173.396 28.312 173.193 28.312H172.289C172.065 28.312 171.884 28.36 171.745 28.456C171.612 28.552 171.545 28.68 171.545 28.84V29.056C171.545 29.3227 171.729 29.488 172.097 29.552L173.561 29.808C174.047 29.8933 174.417 30.0453 174.673 30.264C174.929 30.4773 175.057 30.7547 175.057 31.096V31.624C175.057 31.9067 174.977 32.1573 174.817 32.376C174.663 32.5947 174.444 32.7653 174.161 32.888C173.879 33.0053 173.551 33.064 173.177 33.064H172.257Z" fill="#94A3B8"/>
<defs>
<linearGradient id="paint0_linear_312_61396" x1="30.0114" y1="10.0377" x2="20.0071" y2="20.0085" gradientUnits="userSpaceOnUse">
<stop stop-color="#FFFF00" stop-opacity="0"/>
<stop offset="1" stop-color="#FF9900"/>
</linearGradient>
<radialGradient id="paint1_radial_312_61396" cx="0" cy="0" r="1" gradientUnits="userSpaceOnUse" gradientTransform="translate(19.9783 20.001) rotate(134.999) scale(28.2888 28.301)">
<stop offset="0.225627" stop-color="#FF560C"/>
<stop offset="0.593315" stop-color="#9E0E40"/>
<stop offset="0.787187" stop-color="#DE0F72"/>
<stop offset="1" stop-color="#FF76B7"/>
</radialGradient>
<linearGradient id="paint2_linear_312_61396" x1="90.0156" y1="6" x2="90.0156" y2="18" gradientUnits="userSpaceOnUse">
<stop stop-color="#CBD5E1"/>
<stop offset="1" stop-color="#F1F5F9"/>
</linearGradient>
</defs>
</svg>
